# xmcd
#
# Track frame offsets: 
#        150
#        11749
#        27395
#        53619
#        68616
#        83276
#        104926
#        116806
#        135863
#        160752
#
# Disc length: 2514 seconds
#
# Revision: 0
# Processed by: cddbd v1.5.2PL0 Copyright (c) Steve Scherf et al.
# Submitted via: ExactAudioCopy v0.99pb5
#
DISCID=7609d00a
DTITLE=B.B. King - Collector's Edition [CD2]
DYEAR=2008
DGENRE=Blues
TTITLE0=Paying The Cost To Be The Boss
TTITLE1=Rock Me Baby
TTITLE2=Watch Yourself
TTITLE3=Better Not Look Down
TTITLE4=Ain't Nobody Home
TTITLE5=Gambler's Blues
TTITLE6=Help The Poor
TTITLE7=I Wan't You So Bad
TTITLE8=Never Make A Move Too Soon
TTITLE9=Sweet Sixteen - Parts 1 and 2
EXTD=
EXTT0=
EXTT1=
EXTT2=
EXTT3=
EXTT4=
EXTT5=
EXTT6=
EXTT7=
EXTT8=
EXTT9=
PLAYORDER=
